<svg width="1920" height="160" viewBox="0 0 1920 160" fill="none" xmlns="http://www.w3.org/2000/svg">
<rect width="1920" height="160" fill="#111827"/>
<path d="M203.898 41.8438C203.898 40.0312 205.367 38.5781 207.18 38.5781C208.742 38.5781 210.055 39.6719 210.273 41.1406H208.914C208.758 40.3906 208.008 39.8594 207.18 39.8594C206.086 39.8594 205.195 40.75 205.195 41.8438C205.195 42.9375 206.086 43.8281 207.18 43.8281C208.008 43.8281 208.648 43.2969 208.805 42.5469H210.148C209.945 44.0156 208.742 45.1094 207.18 45.1094C205.367 45.1094 203.898 43.6562 203.898 41.8438ZM207.117 47.6719C203.914 47.6719 201.273 45.0625 201.289 41.8438C201.289 38.6094 203.914 36.0156 207.117 36.0156C210.352 36.0156 212.945 38.6094 212.945 41.8438C212.961 45.0625 210.352 47.6719 207.117 47.6719ZM207.117 46.375C209.633 46.375 211.664 44.3438 211.648 41.8438C211.633 39.3281 209.617 37.3125 207.117 37.3125C204.633 37.3125 202.602 39.3438 202.586 41.8438C202.57 44.3281 204.617 46.375 207.117 46.375ZM218.305 47.6719C215.898 47.6719 214.43 45.8438 214.43 43.2969C214.43 40.7188 215.961 38.9062 218.273 38.9062C220.086 38.9062 221.43 39.9688 221.648 41.5781H220.305C220.117 40.7969 219.43 40.0938 218.305 40.0938C216.789 40.0938 215.773 41.3438 215.773 43.25C215.773 45.2188 216.758 46.4688 218.305 46.4688C219.305 46.4688 220.07 45.9375 220.305 45H221.648C221.43 46.5156 220.195 47.6719 218.305 47.6719ZM226.773 47.6719C224.461 47.6719 222.898 45.9375 222.898 43.2969C222.898 40.6562 224.461 38.9062 226.773 38.9062C229.07 38.9062 230.617 40.6562 230.617 43.2969C230.617 45.9375 229.07 47.6719 226.773 47.6719ZM226.773 46.4844C228.477 46.4844 229.273 44.9844 229.273 43.2969C229.273 41.6094 228.477 40.0938 226.773 40.0938C225.039 40.0938 224.242 41.6094 224.242 43.2969C224.242 44.9844 225.039 46.4844 226.773 46.4844ZM235.586 47.6719C233.477 47.6719 231.977 45.9688 231.977 43.2812C231.977 40.5938 233.477 38.9062 235.602 38.9062C237.242 38.9062 237.773 39.9062 238.055 40.3594H238.148V36.1875H239.508V47.5H238.195V46.2031H238.055C237.758 46.6719 237.211 47.6719 235.586 47.6719ZM235.773 46.4688C237.32 46.4688 238.195 45.1562 238.195 43.25C238.195 41.375 237.352 40.1094 235.773 40.1094C234.148 40.1094 233.336 41.4844 233.336 43.25C233.336 45.0625 234.164 46.4688 235.773 46.4688ZM245.398 47.6719C242.945 47.6719 241.43 45.9375 241.43 43.3281C241.43 40.7188 242.961 38.9062 245.273 38.9062C247.055 38.9062 248.93 40 248.93 43.1406V43.7031H242.773C242.836 45.5 243.883 46.4844 245.398 46.4844C246.414 46.4844 247.055 46.0469 247.367 45.5156H248.805C248.398 46.7969 247.148 47.6719 245.398 47.6719ZM242.789 42.5625H247.57C247.57 41.1406 246.664 40.0938 245.273 40.0938C243.805 40.0938 242.867 41.25 242.789 42.5625ZM250.68 47.5V39.0156H252.023V47.5H250.68ZM251.352 37.6094C250.836 37.6094 250.414 37.2188 250.414 36.7188C250.414 36.2188 250.836 35.8281 251.352 35.8281C251.867 35.8281 252.305 36.2188 252.305 36.7188C252.305 37.2188 251.867 37.6094 251.352 37.6094ZM257.867 39.0156V40.1406H256.086V45.0625C256.086 46.1562 256.617 46.3281 257.195 46.3281C257.445 46.3281 257.789 46.3125 257.992 46.2969V47.5469C257.789 47.5781 257.445 47.6094 257.055 47.6094C255.93 47.6094 254.727 46.9062 254.727 45.4062V40.1406H253.445V39.0156H254.727V36.9844H256.086V39.0156H257.867ZM268.477 42.0469V43.2812H263.523V42.0469H268.477ZM274.539 47.5L274.523 46.4688L278.383 42.4062C279.727 40.9844 280.367 40.2188 280.367 39.1719C280.367 38.0156 279.383 37.25 278.117 37.25C276.773 37.25 275.914 38.1094 275.914 39.375H274.586C274.57 37.375 276.117 36.0312 278.164 36.0312C280.211 36.0312 281.68 37.4062 281.68 39.1719C281.68 40.4375 281.086 41.4219 279.086 43.4844L276.492 46.1562V46.25H281.883V47.5H274.539ZM287.633 47.6562C285.117 47.6562 283.68 45.5469 283.68 41.8438C283.68 38.1719 285.148 36.0312 287.633 36.0312C290.117 36.0312 291.586 38.1719 291.586 41.8438C291.586 45.5469 290.133 47.6562 287.633 47.6562ZM287.633 46.4062C289.258 46.4062 290.211 44.7656 290.211 41.8438C290.211 38.9219 289.258 37.25 287.633 37.25C286.008 37.25 285.039 38.9219 285.039 41.8438C285.039 44.7656 285.992 46.4062 287.633 46.4062ZM293.461 47.5L293.445 46.4688L297.305 42.4062C298.648 40.9844 299.289 40.2188 299.289 39.1719C299.289 38.0156 298.305 37.25 297.039 37.25C295.695 37.25 294.836 38.1094 294.836 39.375H293.508C293.492 37.375 295.039 36.0312 297.086 36.0312C299.133 36.0312 300.602 37.4062 300.602 39.1719C300.602 40.4375 300.008 41.4219 298.008 43.4844L295.414 46.1562V46.25H300.805V47.5H293.461ZM302.32 45.1875V44.0312L307.414 36.1875H309.148V43.9531H310.727V45.1875H309.148V47.5H307.805V45.1875H302.32ZM303.836 43.9531H307.805V37.9688H307.664L303.836 43.8594V43.9531Z" fill="#9CA3AF"/>
<path d="M880.234 47.5V36.1875H884.078C886.734 36.1875 887.938 37.7656 887.938 39.7812C887.938 41.7812 886.734 43.3906 884.094 43.3906H881.641V47.5H880.234ZM881.641 42.1406H884.031C885.828 42.1406 886.547 41.125 886.547 39.7812C886.547 38.4219 885.828 37.4375 884.016 37.4375H881.641V42.1406ZM889.734 47.5V39.0156H891.031V40.3125H891.125C891.438 39.4531 892.312 38.875 893.312 38.875C893.516 38.875 893.859 38.8906 894.016 38.9062V40.2656C893.922 40.2344 893.547 40.1719 893.203 40.1719C891.984 40.1719 891.078 41.0156 891.078 42.1562V47.5H889.734ZM895.328 47.5V39.0156H896.672V47.5H895.328ZM896 37.6094C895.484 37.6094 895.062 37.2188 895.062 36.7188C895.062 36.2188 895.484 35.8281 896 35.8281C896.516 35.8281 896.953 36.2188 896.953 36.7188C896.953 37.2188 896.516 37.6094 896 37.6094ZM905.797 39.0156L902.656 47.5H901.266L898.141 39.0156H899.609L901.922 45.75H902.016L904.328 39.0156H905.797ZM906.609 45.0938C906.609 43.1406 908.328 42.7031 909.797 42.5938C910.336 42.5547 911.711 42.4844 912.094 42.4688V41.7812C912.094 40.7031 911.453 40.0781 910.172 40.0781C909.094 40.0781 908.453 40.5781 908.266 41.2188H906.859C907.031 39.8594 908.359 38.9062 910.234 38.9062C911.344 38.9062 913.422 39.2344 913.422 41.9062V47.5H912.094V46.3438H912.031C911.75 46.9219 910.969 47.7031 909.5 47.7031C907.891 47.7031 906.609 46.75 906.609 45.0938ZM907.953 45.1562C907.953 46.0469 908.703 46.5 909.734 46.5C911.25 46.5 912.094 45.4844 912.094 44.4219V43.5625L909.953 43.7188C908.734 43.7969 907.953 44.2344 907.953 45.1562ZM919.047 47.6719C916.641 47.6719 915.172 45.8438 915.172 43.2969C915.172 40.7188 916.703 38.9062 919.016 38.9062C920.828 38.9062 922.172 39.9688 922.391 41.5781H921.047C920.859 40.7969 920.172 40.0938 919.047 40.0938C917.531 40.0938 916.516 41.3438 916.516 43.25C916.516 45.2188 917.5 46.4688 919.047 46.4688C920.047 46.4688 920.812 45.9375 921.047 45H922.391C922.172 46.5156 920.938 47.6719 919.047 47.6719ZM924.906 50.6875C924.609 50.6875 924.328 50.6719 924.156 50.6562V49.4531C924.297 49.4688 924.609 49.4844 924.812 49.4844C925.359 49.4844 925.812 49.4375 926.266 48.2031L926.516 47.5625L923.375 39.0156H924.844L927.156 45.75H927.25L929.562 39.0156H931.031L927.438 48.7188C926.938 50.0469 926.109 50.6875 924.906 50.6875ZM936.703 47.5V36.1875H940.547C943.203 36.1875 944.406 37.7656 944.406 39.7812C944.406 41.7812 943.203 43.3906 940.562 43.3906H938.109V47.5H936.703ZM938.109 42.1406H940.5C942.297 42.1406 943.016 41.125 943.016 39.7812C943.016 38.4219 942.297 37.4375 940.484 37.4375H938.109V42.1406ZM949.578 47.6719C947.266 47.6719 945.703 45.9375 945.703 43.2969C945.703 40.6562 947.266 38.9062 949.578 38.9062C951.875 38.9062 953.422 40.6562 953.422 43.2969C953.422 45.9375 951.875 47.6719 949.578 47.6719ZM949.578 46.4844C951.281 46.4844 952.078 44.9844 952.078 43.2969C952.078 41.6094 951.281 40.0938 949.578 40.0938C947.844 40.0938 947.047 41.6094 947.047 43.2969C947.047 44.9844 947.844 46.4844 949.578 46.4844ZM956.531 36.1875V47.5H955.188V36.1875H956.531ZM958.672 47.5V39.0156H960.016V47.5H958.672ZM959.344 37.6094C958.828 37.6094 958.406 37.2188 958.406 36.7188C958.406 36.2188 958.828 35.8281 959.344 35.8281C959.859 35.8281 960.297 36.2188 960.297 36.7188C960.297 37.2188 959.859 37.6094 959.344 37.6094ZM965.625 47.6719C963.219 47.6719 961.75 45.8438 961.75 43.2969C961.75 40.7188 963.281 38.9062 965.594 38.9062C967.406 38.9062 968.75 39.9688 968.969 41.5781H967.625C967.438 40.7969 966.75 40.0938 965.625 40.0938C964.109 40.0938 963.094 41.3438 963.094 43.25C963.094 45.2188 964.078 46.4688 965.625 46.4688C966.625 46.4688 967.391 45.9375 967.625 45H968.969C968.75 46.5156 967.516 47.6719 965.625 47.6719ZM971.484 50.6875C971.188 50.6875 970.906 50.6719 970.734 50.6562V49.4531C970.875 49.4688 971.188 49.4844 971.391 49.4844C971.938 49.4844 972.391 49.4375 972.844 48.2031L973.094 47.5625L969.953 39.0156H971.422L973.734 45.75H973.828L976.141 39.0156H977.609L974.016 48.7188C973.516 50.0469 972.688 50.6875 971.484 50.6875Z" fill="#E5E7EB"/>
<path d="M1009.8 47.5V36.1875H1016.61V37.4375H1011.2V41.2188H1016.09V42.4531H1011.2V47.5H1009.8ZM1017.78 47.5H1016.31L1020.45 36.1875H1021.94L1026.08 47.5H1024.59L1023.47 44.3125H1018.92L1017.78 47.5ZM1019.34 43.0781H1023.03L1021.23 38.0156H1021.14L1019.34 43.0781ZM1031.17 43.9531H1032.7L1033.91 45.5156C1034.75 44.7812 1035.28 43.5391 1035.28 41.8438C1035.28 38.9219 1033.69 37.3438 1031.64 37.3438C1029.59 37.3438 1028 38.9219 1028 41.8438C1028 44.7656 1029.59 46.3438 1031.64 46.3438C1032.06 46.3438 1032.47 46.2734 1032.84 46.1406L1031.17 43.9531ZM1036.64 41.8438C1036.64 43.9531 1035.91 45.6016 1034.72 46.5938L1036.19 48.5625H1034.66L1033.67 47.2344C1033.05 47.5156 1032.38 47.6562 1031.64 47.6562C1028.73 47.6562 1026.64 45.4219 1026.64 41.8438C1026.64 38.2656 1028.73 36.0312 1031.64 36.0312C1034.53 36.0312 1036.64 38.2656 1036.64 41.8438Z" fill="#E5E7EB"/>
<path fill-rule="evenodd" clip-rule="evenodd" d="M1605 41.9033C1605 46.3778 1608.25 50.0985 1612.5 50.853V44.3528H1610.25V41.853H1612.5V39.8528C1612.5 37.6028 1613.95 36.3533 1616 36.3533C1616.65 36.3533 1617.35 36.453 1618 36.5528V38.853H1616.85C1615.75 38.853 1615.5 39.4028 1615.5 40.1033V41.853H1617.9L1617.5 44.3528H1615.5V50.853C1619.75 50.0985 1623 46.3785 1623 41.9033C1623 36.9255 1618.95 32.853 1614 32.853C1609.05 32.853 1605 36.9255 1605 41.9033Z" fill="white"/>
<path d="M1655.7 36.1141C1655.01 36.4225 1654.26 36.6308 1653.47 36.725C1654.28 36.2398 1654.89 35.4762 1655.18 34.5766C1654.42 35.0291 1653.58 35.3476 1652.72 35.5183C1652.13 34.894 1651.36 34.4803 1650.51 34.3412C1649.67 34.2022 1648.8 34.3456 1648.05 34.7494C1647.29 35.1531 1646.69 35.7945 1646.34 36.5739C1645.99 37.3534 1645.91 38.2273 1646.1 39.06C1644.56 38.9825 1643.05 38.5813 1641.67 37.8824C1640.29 37.1835 1639.07 36.2026 1638.1 35.0033C1637.77 35.5783 1637.57 36.245 1637.57 36.955C1637.57 37.5941 1637.73 38.2235 1638.03 38.7873C1638.33 39.351 1638.77 39.8317 1639.3 40.1866C1638.68 40.167 1638.08 40.0005 1637.54 39.7008V39.7508C1637.54 40.6473 1637.85 41.5161 1638.42 42.21C1638.99 42.9038 1639.78 43.3799 1640.66 43.5575C1640.08 43.7122 1639.48 43.735 1638.9 43.6242C1639.15 44.3955 1639.63 45.07 1640.28 45.5533C1640.93 46.0365 1641.72 46.3043 1642.53 46.3192C1641.15 47.3987 1639.46 47.9842 1637.71 47.9816C1637.4 47.9817 1637.09 47.9636 1636.78 47.9275C1638.56 49.0685 1640.62 49.674 1642.73 49.6716C1649.87 49.6716 1653.78 43.7566 1653.78 38.6266C1653.78 38.46 1653.77 38.2916 1653.77 38.125C1654.52 37.5758 1655.18 36.8957 1655.7 36.1166L1655.7 36.1141Z" fill="white"/>
<g clip-path="url(#clip0_45011_31034)">
<path d="M1687.58 37.4224C1687.47 37.0184 1687.25 36.6527 1686.94 36.3641C1686.63 36.0666 1686.25 35.8538 1685.83 35.7457C1684.26 35.3332 1677.99 35.3332 1677.99 35.3332C1675.38 35.3035 1672.77 35.4343 1670.17 35.7249C1669.75 35.8409 1669.37 36.0585 1669.05 36.3582C1668.75 36.6549 1668.52 37.0207 1668.41 37.4216C1668.13 38.9314 1667.99 40.4644 1668 41.9999C1667.99 43.5341 1668.13 45.0666 1668.41 46.5782C1668.52 46.9774 1668.74 47.3416 1669.05 47.6357C1669.36 47.9299 1669.75 48.1424 1670.17 48.2549C1671.76 48.6666 1677.99 48.6666 1677.99 48.6666C1680.61 48.6963 1683.23 48.5655 1685.83 48.2749C1686.25 48.1669 1686.63 47.9541 1686.94 47.6566C1687.25 47.368 1687.47 47.0022 1687.58 46.5982C1687.87 45.089 1688.01 43.5554 1688 42.0191C1688.02 40.4762 1687.88 38.9354 1687.58 37.4216V37.4224ZM1676 44.8532V39.1474L1681.22 42.0007L1676 44.8532Z" fill="white"/>
</g>
<path d="M1709.5 39.5185C1707.94 39.5185 1706.66 40.7922 1706.66 42.353C1706.66 43.9138 1707.94 45.1876 1709.5 45.1876C1711.06 45.1876 1712.33 43.9138 1712.33 42.353C1712.33 40.7922 1711.06 39.5185 1709.5 39.5185ZM1718 42.353C1718 41.1792 1718.01 40.0161 1717.94 38.8444C1717.88 37.4835 1717.57 36.2757 1716.57 35.2805C1715.58 34.2832 1714.37 33.9749 1713.01 33.9089C1711.83 33.843 1710.67 33.8537 1709.5 33.8537C1708.33 33.8537 1707.16 33.843 1705.99 33.9089C1704.63 33.9749 1703.42 34.2853 1702.43 35.2805C1701.43 36.2778 1701.12 37.4835 1701.06 38.8444C1700.99 40.0182 1701 41.1814 1701 42.353C1701 43.5247 1700.99 44.69 1701.06 45.8616C1701.12 47.2226 1701.43 48.4304 1702.43 49.4256C1703.42 50.4229 1704.63 50.7312 1705.99 50.7971C1707.17 50.863 1708.33 50.8524 1709.5 50.8524C1710.67 50.8524 1711.84 50.863 1713.01 50.7971C1714.37 50.7312 1715.58 50.4207 1716.57 49.4256C1717.57 48.4283 1717.88 47.2226 1717.94 45.8616C1718.01 44.69 1718 43.5268 1718 42.353ZM1709.5 46.7143C1707.08 46.7143 1705.14 44.7665 1705.14 42.353C1705.14 39.9395 1707.08 37.9917 1709.5 37.9917C1711.91 37.9917 1713.86 39.9395 1713.86 42.353C1713.86 44.7665 1711.91 46.7143 1709.5 46.7143ZM1714.04 38.8316C1713.47 38.8316 1713.02 38.3766 1713.02 37.8131C1713.02 37.2496 1713.47 36.7945 1714.04 36.7945C1714.6 36.7945 1715.06 37.2496 1715.06 37.8131C1715.06 37.9469 1715.03 38.0794 1714.98 38.2031C1714.93 38.3267 1714.85 38.4391 1714.76 38.5337C1714.66 38.6283 1714.55 38.7033 1714.43 38.7545C1714.3 38.8056 1714.17 38.8318 1714.04 38.8316Z" fill="white"/>
<defs>
<clipPath id="clip0_45011_31034">
<rect width="20" height="20" fill="white" transform="translate(1668 32)"/>
</clipPath>
</defs>
</svg>
